PathFileType	4	(X/Y/Z)	C:\Users\Basilio\Documents\Thesis Gigler\squatting_fais\c3dfiles\038\SJ_pre4\markers_experimental.trc
DataRate	CameraRate	NumFrames	NumMarkers	Units	OrigDataRate	OrigDataStartFrame	OrigNumFrames
200.000000	200.000000	4	61	mm	200.000000	752	2007
Frame#	Time	FHD			LBHD			RBHD			C7			T10			CLAV			LSHO			LUUPA			LMUPA			LDUPA			LLEP			LMEP			LRAD			LUL			LRFIN			RSHO			RUPA1			RMUPA			RDUPA			RLEP			RMEP			RRAD			RUL			RUFIN			LASI			RASI			USACR			LSACR			RSACR			LTHI1			LTHI2			LTHI3			LTHI4			LLFC			LMFC			LTIB1			LTIB2			LTIB3			LTIB4			LLMAL			LMMAL			LHEE			LMT1			LMT2			LMT5			RTHI			RTHI2			RTHI3			RTHI4			RLFC			RMFC			RTIB1			RTIB2			RTIB3			RTIB4			RLMAL			RMMAL			RHEE			RMT1			RMT2			RMT5			
		X1	Y1	Z1	X2	Y2	Z2	X3	Y3	Z3	X4	Y4	Z4	X5	Y5	Z5	X6	Y6	Z6	X7	Y7	Z7	X8	Y8	Z8	X9	Y9	Z9	X10	Y10	Z10	X11	Y11	Z11	X12	Y12	Z12	X13	Y13	Z13	X14	Y14	Z14	X15	Y15	Z15	X16	Y16	Z16	X17	Y17	Z17	X18	Y18	Z18	X19	Y19	Z19	X20	Y20	Z20	X21	Y21	Z21	X22	Y22	Z22	X23	Y23	Z23	X24	Y24	Z24	X25	Y25	Z25	X26	Y26	Z26	X27	Y27	Z27	X28	Y28	Z28	X29	Y29	Z29	X30	Y30	Z30	X31	Y31	Z31	X32	Y32	Z32	X33	Y33	Z33	X34	Y34	Z34	X35	Y35	Z35	X36	Y36	Z36	X37	Y37	Z37	X38	Y38	Z38	X39	Y39	Z39	X40	Y40	Z40	X41	Y41	Z41	X42	Y42	Z42	X43	Y43	Z43	X44	Y44	Z44	X45	Y45	Z45	X46	Y46	Z46	X47	Y47	Z47	X48	Y48	Z48	X49	Y49	Z49	X50	Y50	Z50	X51	Y51	Z51	X52	Y52	Z52	X53	Y53	Z53	X54	Y54	Z54	X55	Y55	Z55	X56	Y56	Z56	X57	Y57	Z57	X58	Y58	Z58	X59	Y59	Z59	X60	Y60	Z60	X61	Y61	Z61	

753	3.76	-201.2802734375001	1538.001708984375	-908.791198730469	-345.1431274414063	1458.884643554688	-971.9192504882815	-338.2403259277344	1451.715209960938	-826.1550292968752	-396.7763671875001	1344.250610351563	-894.2440185546877	-540.1193237304689	1100.444091796875	-883.4183349609377	-283.3571472167969	1252.881469726563	-904.9475097656252	-305.7507934570313	1312.818603515625	-1066.237670898438	-395.4841613769532	1181.458374023438	-1248.807006835938	-369.5673522949219	1138.453735351563	-1236.433471679688	-403.3360595703126	1121.130126953125	-1282.71923828125	-414.9719238281251	1059.104736328125	-1300.683837890625	-496.3926696777345	1064.146240234375	-1287.031494140625	-479.8064880371095	877.7797851562502	-1080.196533203125	-449.2969665527345	826.913513183594	-1124.008911132813	-470.0869750976564	843.4997558593752	-1016.037231445313	-289.7304077148438	1297.632446289063	-743.7807617187501	-323.9753417968751	1163.097534179688	-566.8624267578126	-322.1921081542969	1115.564086914063	-578.2304687500001	-339.2568054199219	1112.632080078125	-521.2835693359376	-354.7311096191407	1044.2880859375	-490.286590576172	-437.2688293457032	1056.529541015625	-480.9994201660157	-460.1666259765626	848.9053955078127	-654.9144287109376	-407.5692443847657	808.1177978515627	-630.3764038085939	-438.7796936035157	836.1514282226565	-721.7380371093751	-483.3909912109376	862.0792236328127	-998.7573242187502	-467.531463623047	877.0291748046877	-751.7915649414064	-620.3444824218751	972.3276367187502	-870.8769531250002	-646.2154541015626	947.8309326171877	-896.472839355469	-639.8168945312501	948.6679687500002	-839.0664672851565	-447.6365966796876	658.6638793945314	-1144.924194335938	-379.5564270019532	612.4940185546876	-1171.64794921875	-340.1508789062501	637.0875854492189	-1154.804077148438	-373.5295715332032	551.7113037109376	-1167.022216796875	-347.3200073242188	501.9292602539064	-1170.4921875	-306.5280456542969	490.3982543945314	-1071.188110351563	-316.3263244628907	314.2153320312501	-1108.577758789063	-385.0543823242189	283.3223571777344	-1155.956665039063	-346.8176269531251	271.8111572265626	-1136.557006835938	-365.7635498046876	197.4944305419922	-1096.951782226563	-477.4025878906251	82.69602966308595	-1089.852905273438	-418.7042236328126	98.28753662109378	-1029.81103515625	-509.2202453613282	43.7059440612793	-1023.2646484375	-308.8018493652344	48.54811477661134	-1089.486206054688	-319.8793640136719	53.62030410766603	-1138.614868164063	-372.7730102539063	31.38120651245118	-1169.827758789063	-462.6588134765626	676.6821899414064	-647.5174560546876	-406.4867553710939	648.0874023437501	-627.1559448242189	-377.6644897460938	666.0299072265626	-624.3560180664064	-387.8362121582032	563.2675170898439	-635.4234008789064	-314.4468078613282	468.2183227539064	-627.1453857421876	-293.3990783691407	475.8406677246095	-734.0428466796876	-298.6619262695313	296.1371459960938	-664.5963134765626	-402.0850219726564	240.0998535156251	-655.3342285156251	-355.7431030273438	231.6478271484376	-658.4318237304689	-351.9268188476563	182.5119018554688	-691.3234863281251	-453.4761962890626	86.55702209472658	-691.4897460937501	-405.5939941406251	92.39247894287111	-761.9321289062501	-495.8529052734376	39.40063476562501	-772.380798339844	-293.0213012695313	51.17452621459962	-690.5873413085939	-310.4326477050782	55.69541168212892	-647.5244140625001	-365.3517456054688	34.82764053344727	-618.2479248046876	
754	3.765	-201.3670654296876	1536.954345703125	-908.8584594726565	-345.1872253417969	1457.919921875	-971.856140136719	-338.0002746582032	1450.619506835938	-826.139587402344	-396.6035461425782	1343.140991210938	-894.1193847656252	-540.1687011718751	1099.485229492188	-883.4357910156252	-283.1597900390626	1251.725830078125	-905.014587402344	-305.4054260253907	1311.588745117188	-1066.242553710938	-395.2522277832032	1180.51904296875	-1248.837280273438	-369.3922729492188	1137.109375	-1236.422241210938	-403.0598144531251	1120.202392578125	-1282.842651367188	-414.7454528808595	1058.097534179688	-1300.886108398438	-496.2841186523439	1063.419921875	-1287.216674804688	-480.0814819335939	877.1165161132815	-1080.121337890625	-449.5433349609376	826.4067382812502	-1123.982543945313	-470.3626403808595	842.7911376953127	-1015.998779296875	-289.4551086425782	1296.502685546875	-743.7666625976564	-323.7525024414063	1162.016967773438	-566.8734741210939	-322.1710815429688	1115.01123046875	-578.3053588867189	-339.1510925292969	1111.540771484375	-521.1678466796876	-354.7720947265626	1043.24755859375	-490.0101623535157	-437.246795654297	1055.89306640625	-480.7872009277345	-460.1774291992189	848.0344238281252	-654.7434692382814	-407.7259216308595	807.2241210937502	-630.2079467773439	-439.1042785644532	835.6335449218752	-721.7949829101564	-483.5617065429689	861.2287597656252	-998.8985595703127	-467.7313232421876	875.751403808594	-751.6370239257814	-620.4812622070314	971.6374511718752	-870.841735839844	-646.3718261718751	947.0194091796877	-896.4380493164065	-640.0053710937501	947.931091308594	-838.9727172851565	-447.6343688964845	658.1917724609376	-1145.073852539063	-379.5331420898438	612.3042602539064	-1172.015014648438	-340.1098327636719	636.8403930664064	-1154.986450195313	-373.3034057617188	551.4395751953126	-1167.275634765625	-346.9460144042969	501.6190490722657	-1170.787475585938	-306.4927673339844	490.5742797851564	-1071.732543945313	-316.1694030761719	314.0382690429688	-1108.761840820313	-384.8677978515626	283.1737365722657	-1156.133911132813	-346.6634216308594	271.4681701660157	-1136.709106445313	-365.6622314453126	197.3195190429688	-1097.02685546875	-477.4201049804689	82.65859985351564	-1089.866333007813	-418.729461669922	98.27989196777347	-1029.871948242188	-509.2313232421876	43.69232559204102	-1023.253540039063	-308.7981262207032	48.51393508911134	-1089.497314453125	-319.8859252929688	53.60218048095705	-1138.614013671875	-372.7713012695313	31.36820602416993	-1169.820678710938	-462.6515197753907	675.9986572265626	-647.3228149414064	-406.418914794922	647.6133422851564	-626.8957519531251	-377.6710205078126	665.6417846679689	-624.1165771484376	-387.9001770019532	562.5405883789064	-635.3162231445314	-314.3218078613282	467.7587890625001	-626.9886474609376	-292.9331665039063	475.6102905273439	-733.7050170898439	-298.4831542968751	295.9651184082032	-664.3693237304689	-401.8914489746095	239.9735717773438	-655.1383056640626	-355.6293029785157	231.5809783935547	-658.2954101562501	-351.7362365722657	182.3826751708985	-691.2285766601564	-453.446990966797	86.52227020263673	-691.4393920898439	-405.0593872070314	92.11806488037111	-761.7439575195314	-495.8745727539064	39.40427398681641	-772.3694458007815	-293.0391235351563	51.13634490966798	-690.5743408203126	-310.5088500976563	55.69615554809572	-647.5707397460939	-365.3815002441407	34.8207130432129	-618.2913818359376	
755	3.77	-201.0950012207032	1535.773803710938	-908.7434082031252	-344.8894348144532	1456.731811523438	-971.8946533203127	-337.8476562500001	1449.297119140625	-826.156433105469	-396.3466796875001	1342.01025390625	-894.2379150390627	-540.0316772460939	1098.617553710938	-883.4041137695315	-282.9424438476563	1250.646240234375	-904.9874267578127	-305.1106872558594	1310.590698242188	-1066.08935546875	-395.1786499023439	1179.581298828125	-1248.903076171875	-369.3260498046876	1136.138305664063	-1236.494506835938	-402.9771728515626	1119.456665039063	-1282.885131835938	-414.7192382812501	1057.331298828125	-1300.888549804688	-496.5345153808595	1063.140380859375	-1287.422973632813	-480.2449951171876	876.423034667969	-1080.343139648438	-449.7426147460939	825.6438598632815	-1124.017822265625	-470.5321044921876	842.1820068359377	-1015.981140136719	-289.2797241210938	1295.363403320313	-743.7505493164064	-323.2690124511719	1161.48095703125	-566.5890502929689	-321.8795166015626	1113.796997070313	-578.0380859375001	-338.9226379394532	1110.68798828125	-521.1836547851564	-354.5888671875001	1042.4306640625	-489.917938232422	-437.190887451172	1054.952026367188	-480.6205139160157	-460.4635314941407	847.3858032226565	-654.5611572265626	-407.9327087402345	806.4494628906252	-630.1018066406251	-439.0664062500001	834.8436279296877	-721.5545654296876	-483.7728576660157	860.3992919921877	-998.8454589843752	-467.9831542968751	874.997985839844	-751.6998901367189	-620.6943359375001	970.5574340820315	-870.8491821289065	-646.4357910156251	946.1152954101565	-896.3169555664065	-640.0231323242189	947.0887451171877	-838.989440917969	-447.6125488281251	657.7789916992189	-1145.236938476563	-379.4410400390626	612.0092163085939	-1172.200927734375	-340.0996093750001	636.5312500000001	-1155.219116210938	-373.0393371582032	551.2443847656251	-1167.579223632813	-346.8974609375001	500.9181518554689	-1171.167846679688	-306.5409851074219	490.480194091797	-1072.031494140625	-316.0362854003907	313.9412536621094	-1108.850708007813	-384.5966796875001	283.0701599121094	-1156.35400390625	-346.6808776855469	271.4814147949219	-1136.92578125	-365.6049499511719	196.8221893310547	-1097.418090820313	-477.4365844726564	82.63632202148439	-1089.871948242188	-418.7480773925782	98.28351593017581	-1029.913818359375	-509.2280578613282	43.6934928894043	-1023.259399414063	-308.9375305175782	48.68444442749025	-1089.555297851563	-319.9222412109376	53.64949417114259	-1138.612426757813	-372.7832946777344	31.37988281250001	-1169.807006835938	-462.5257263183595	675.3959350585939	-647.1554565429689	-406.6621093750001	646.5643310546876	-626.2519531250001	-377.6642761230469	665.1543579101564	-623.7712402343751	-387.7409667968751	562.1242675781251	-635.0766601562501	-313.7075805664063	467.6558532714845	-626.5260620117189	-292.4982604980469	475.3880310058595	-733.4436645507814	-298.2734375000001	295.8560180664063	-664.1121215820314	-401.801239013672	239.888900756836	-655.0024414062501	-355.4138793945313	231.5051574707032	-658.2208251953126	-351.7350463867188	182.1965637207032	-691.1561889648439	-453.4830017089845	86.4938430786133	-691.4953002929689	-405.570281982422	92.3994598388672	-761.8955688476564	-495.8576965332032	39.42083740234376	-772.3753051757815	-293.0552062988282	51.20656967163087	-690.5903930664064	-310.4975585937501	55.73252105712892	-647.5241088867189	-365.3534851074219	34.84309387207032	-618.2536621093751	
756	3.775	-200.9129791259766	1534.855224609375	-908.8408813476565	-344.5974731445313	1455.925415039063	-971.8892822265627	-337.5651550292969	1448.279663085938	-826.1611938476565	-396.1931457519532	1341.02392578125	-894.2099609375002	-540.1189575195314	1097.703247070313	-883.3921508789065	-282.9616088867188	1249.595703125	-904.9672851562502	-304.6142578125001	1309.193359375	-1065.9951171875	-394.8114624023439	1178.783325195313	-1248.995727539063	-369.1579589843751	1135.419799804688	-1236.561767578125	-402.6796264648439	1118.61279296875	-1283.088745117188	-414.4992980957032	1056.625122070313	-1300.974731445313	-496.0639648437501	1061.868041992188	-1287.674072265625	-480.3632812500001	875.808044433594	-1080.3212890625	-449.9292602539064	824.9046020507815	-1123.958984375	-470.5678100585939	841.5788574218752	-1015.958190917969	-289.0332336425782	1294.245361328125	-743.8253173828126	-323.4902954101563	1160.189697265625	-566.7203369140626	-321.9130554199219	1112.55029296875	-577.9713745117189	-338.8838806152344	1109.868408203125	-520.9075927734376	-354.5119323730469	1041.5556640625	-489.8506164550782	-437.0169067382814	1054.072631835938	-480.4848022460939	-460.7864379882814	846.649108886719	-654.3866577148439	-408.1114807128907	805.7515258789065	-629.8685913085939	-439.3009033203126	834.0779418945315	-721.4146728515626	-483.8891906738282	859.3728027343752	-998.8604736328127	-468.3209533691407	874.1365356445315	-751.5995483398439	-620.7717895507814	969.7512817382815	-870.7783203125002	-646.6897583007814	945.0224609375002	-896.3137817382815	-640.1488647460939	946.1077880859377	-838.9135742187502	-447.5899658203126	657.3296508789064	-1145.41943359375	-379.3155822753907	611.7283935546876	-1172.40966796875	-339.9837341308594	636.2005615234376	-1155.386596679688	-372.8981628417969	550.9071655273439	-1167.914428710938	-346.5223388671876	500.7041931152345	-1171.436889648438	-306.3299255371094	490.3726196289064	-1072.202514648438	-315.9736022949219	313.8750610351563	-1109.066162109375	-384.3978271484376	282.8966674804688	-1156.514282226563	-346.7085266113282	271.2349548339844	-1136.96630859375	-365.5018615722657	196.7012939453126	-1097.540771484375	-477.4647216796876	82.57424926757814	-1089.9296875	-418.7743530273439	98.31353759765628	-1029.931518554688	-509.295135498047	43.71571350097657	-1023.297668457031	-308.8404541015626	48.70262527465822	-1089.532958984375	-319.8625488281251	53.67212295532228	-1138.630493164063	-372.8217163085938	31.39744758605958	-1169.84326171875	-462.4418334960939	674.9026489257814	-647.0483398437501	-406.5347290039064	646.0819091796876	-626.0405273437501	-377.6632385253907	664.7031860351564	-623.4785766601564	-387.3471679687501	561.6608276367189	-634.8589477539064	-313.3479003906251	467.3795776367189	-626.0980834960939	-292.1487121582032	475.1729736328126	-733.0749511718751	-298.1481628417969	295.7092590332032	-663.9507446289064	-401.580291748047	239.7217559814454	-654.8493041992189	-355.2067260742188	231.3516387939454	-658.0582885742189	-351.6887207031251	182.0381927490235	-691.0822143554689	-453.4733276367189	86.45541381835939	-691.4565429687501	-405.5975952148439	92.41793060302736	-761.9100341796876	-495.8612060546876	39.40306472778321	-772.3665771484377	-293.0310668945313	51.29165267944337	-690.6016845703126	-310.4768981933594	55.75338745117189	-647.4936523437501	-365.3676147460938	34.82795333862305	-618.2982788085939	
